<svg width="262" height="43" viewBox="0 0 262 43" fill="none" xmlns="http://www.w3.org/2000/svg">
<path d="M16.4243 1.68726C17.3437 1.12041 18.5042 1.12042 19.4237 1.68726L34.4899 10.9754C35.334 11.4958 35.848 12.4165 35.848 13.4081V30.3329C35.848 31.3245 35.3339 32.2452 34.4899 32.7656L19.4237 42.0537C18.5042 42.6206 17.3437 42.6206 16.4243 42.0537L1.35809 32.7656C0.514008 32.2452 0 31.3245 0 30.3329V13.4081C0 12.4165 0.51401 11.4958 1.35809 10.9754L16.4243 1.68726Z" fill="#3940A0"/>
<mask id="mask0_74_2539" style="mask-type:alpha" maskUnits="userSpaceOnUse" x="0" y="1" width="36" height="42">
<path d="M16.4243 1.68726C17.3437 1.12041 18.5042 1.12042 19.4237 1.68726L34.4899 10.9754C35.334 11.4958 35.848 12.4165 35.848 13.4081V30.3329C35.848 31.3245 35.3339 32.2452 34.4899 32.7656L19.4237 42.0537C18.5042 42.6206 17.3437 42.6206 16.4243 42.0537L1.35809 32.7656C0.514008 32.2452 0 31.3245 0 30.3329V13.4081C0 12.4165 0.51401 11.4958 1.35809 10.9754L16.4243 1.68726Z" fill="#C4C4C4"/>
</mask>
<g mask="url(#mask0_74_2539)">
<rect x="7.67969" y="20.8535" width="3.21504" height="19.5948" fill="white"/>
<mask id="mask1_74_2539" style="mask-type:alpha" maskUnits="userSpaceOnUse" x="11" y="13" width="8" height="4">
<rect x="18.2891" y="13.4619" width="3.17485" height="6.43008" transform="rotate(90 18.2891 13.4619)" fill="#CD6767"/>
</mask>
<g mask="url(#mask1_74_2539)">
<path d="M11.859 16.6368C11.859 16.2198 11.9421 15.807 12.1037 15.4218C12.2653 15.0366 12.5021 14.6866 12.8006 14.3918C13.0992 14.097 13.4536 13.8631 13.8437 13.7036C14.2337 13.544 14.6518 13.4619 15.074 13.4619L15.074 16.6368L11.859 16.6368Z" fill="white"/>
</g>
<mask id="mask2_74_2539" style="mask-type:alpha" maskUnits="userSpaceOnUse" x="17" y="13" width="7" height="4">
<rect x="24" y="13.4619" width="3.17485" height="6.43008" rx="0.178613" transform="rotate(90 24 13.4619)" fill="#CD6767"/>
</mask>
<g mask="url(#mask2_74_2539)">
<path d="M17.7485 16.6368C17.6499 16.6368 17.5694 16.5567 17.575 16.4582C17.6193 15.6813 17.9514 14.945 18.5116 14.3918C19.1145 13.7964 19.9323 13.4619 20.785 13.4619C21.6376 13.4619 22.4554 13.7964 23.0583 14.3918C23.6185 14.945 23.9506 15.6813 23.9949 16.4582C24.0005 16.5567 23.92 16.6368 23.8214 16.6368L20.785 16.6368L17.7485 16.6368Z" fill="white"/>
</g>
<path d="M19.7042 25.2187C19.8028 25.2187 19.8828 25.2987 19.8828 25.3974L19.8828 28.215C19.8828 28.3136 19.8028 28.3936 19.7042 28.3936L10.8907 28.3936L10.8907 25.2187L19.7042 25.2187Z" fill="white"/>
<path d="M24.0156 29.3359L20.8006 29.3359L20.8006 21.8751C20.8006 21.7764 20.8806 21.6964 20.9792 21.6964L23.837 21.6964C23.9357 21.6964 24.0156 21.7764 24.0156 21.8751L24.0156 29.3359Z" fill="white"/>
<path d="M11.8516 16.6357L15.0666 16.6357L15.0666 24.0966C15.0666 24.1953 14.9866 24.2752 14.888 24.2752L12.0302 24.2752C11.9315 24.2752 11.8516 24.1953 11.8516 24.0966L11.8516 16.6357Z" fill="white"/>
<path d="M24.9609 17.5791L24.9609 20.754L16.1977 20.754C16.0991 20.754 16.0191 20.674 16.0191 20.5753L16.0191 17.7577C16.0191 17.6591 16.0991 17.5791 16.1977 17.5791L24.9609 17.5791Z" fill="white"/>
<path d="M20.7969 29.3359L20.7969 32.5108L11.855 32.5108L11.855 29.5146C11.855 29.4159 11.935 29.3359 12.0337 29.3359L20.7969 29.3359Z" fill="white"/>
<rect x="20.75" y="13.4619" width="3.17485" height="5.67656" transform="rotate(90 20.75 13.4619)" fill="white"/>
<mask id="mask3_74_2539" style="mask-type:alpha" maskUnits="userSpaceOnUse" x="24" y="17" width="5" height="7">
<rect x="28.1719" y="23.9287" width="3.21504" height="6.34971" transform="rotate(-180 28.1719 23.9287)" fill="#CD6767"/>
</mask>
<g mask="url(#mask3_74_2539)">
<path d="M24.9568 17.579C25.8095 17.579 26.6273 17.9135 27.2302 18.5089C27.8331 19.1043 28.1719 19.9118 28.1719 20.7539L24.9568 20.7539L24.9568 17.579Z" fill="white"/>
</g>
<mask id="mask4_74_2539" style="mask-type:alpha" maskUnits="userSpaceOnUse" x="24" y="23" width="5" height="7">
<rect x="28.1797" y="29.584" width="3.21504" height="6.34971" rx="0.178613" transform="rotate(-180 28.1797 29.584)" fill="#CD6767"/>
</mask>
<g mask="url(#mask4_74_2539)">
<path d="M24.9646 23.4129C24.9646 23.3142 25.0447 23.2338 25.1432 23.2392C25.9308 23.2824 26.6773 23.6105 27.238 24.1642C27.841 24.7596 28.1797 25.5671 28.1797 26.4091C28.1797 27.2512 27.841 28.0587 27.238 28.6541C26.6773 29.2078 25.9308 29.5359 25.1432 29.5791C25.0447 29.5845 24.9646 29.504 24.9646 29.4054L24.9646 26.4091L24.9646 23.4129Z" fill="white"/>
</g>
<rect x="28.1797" y="26.4082" width="3.21504" height="5.65521" transform="rotate(-180 28.1797 26.4082)" fill="white"/>
<path d="M11.8594 32.5107H15.0744L15.0744 42.452C15.0744 42.5506 14.9944 42.6306 14.8958 42.6306H12.038C11.9393 42.6306 11.8594 42.5506 11.8594 42.452L11.8594 32.5107Z" fill="white"/>
<mask id="mask5_74_2539" style="mask-type:alpha" maskUnits="userSpaceOnUse" x="7" y="17" width="4" height="8">
<rect x="7.67969" y="17.6797" width="3.21504" height="6.34971" rx="0.178613" fill="#CD6767"/>
</mask>
<g mask="url(#mask5_74_2539)">
<ellipse cx="10.8947" cy="20.8545" rx="3.21504" ry="3.17485" fill="white"/>
</g>
<mask id="mask6_74_2539" style="mask-type:alpha" maskUnits="userSpaceOnUse" x="20" y="29" width="5" height="4">
<rect x="20.7969" y="32.5107" width="3.17485" height="3.21504" transform="rotate(-90 20.7969 32.5107)" fill="#CD6767"/>
</mask>
<g mask="url(#mask6_74_2539)">
<path d="M24.0004 29.3359C24.0004 29.7528 23.9172 30.1657 23.7557 30.5509C23.5941 30.936 23.3573 31.286 23.0587 31.5808C22.7602 31.8757 22.4058 32.1095 22.0157 32.2691C21.6256 32.4286 21.2076 32.5107 20.7854 32.5107L20.7854 29.3359L24.0004 29.3359Z" fill="white"/>
</g>
</g>
<path d="M55.1139 16.4842C56.3767 16.4842 57.4395 16.9093 58.3022 17.7595C59.1649 18.6097 59.5962 19.6537 59.5962 20.8915C59.5962 22.1293 59.1649 23.1733 58.3022 24.0235C57.4395 24.8737 56.3767 25.2988 55.1139 25.2988H52.8071V29.6123H50.219V16.4842H55.1139ZM55.1139 22.8795C55.6641 22.8795 56.1204 22.6919 56.483 22.3168C56.8456 21.9292 57.0269 21.4541 57.0269 20.8915C57.0269 20.3164 56.8456 19.8413 56.483 19.4662C56.1204 19.0911 55.6641 18.9035 55.1139 18.9035H52.8071V22.8795H55.1139ZM63.3865 21.848C63.6116 21.2478 63.9804 20.7977 64.493 20.4977C65.0182 20.1976 65.5996 20.0476 66.2372 20.0476V22.7482C65.4995 22.6607 64.8369 22.8107 64.2492 23.1983C63.6741 23.5859 63.3865 24.2298 63.3865 25.13V29.6123H60.9672V20.2351H63.3865V21.848ZM75.2935 28.4495C74.3308 29.3998 73.1555 29.8749 71.7677 29.8749C70.3799 29.8749 69.2046 29.3998 68.2419 28.4495C67.2917 27.4868 66.8165 26.3115 66.8165 24.9237C66.8165 23.5359 67.2917 22.3669 68.2419 21.4166C69.2046 20.4539 70.3799 19.9725 71.7677 19.9725C73.1555 19.9725 74.3308 20.4539 75.2935 21.4166C76.2563 22.3669 76.7376 23.5359 76.7376 24.9237C76.7376 26.3115 76.2563 27.4868 75.2935 28.4495ZM69.9485 26.7804C70.4361 27.268 71.0425 27.5118 71.7677 27.5118C72.4929 27.5118 73.0993 27.268 73.5869 26.7804C74.0745 26.2928 74.3183 25.6739 74.3183 24.9237C74.3183 24.1735 74.0745 23.5546 73.5869 23.067C73.0993 22.5794 72.4929 22.3356 71.7677 22.3356C71.0425 22.3356 70.4361 22.5794 69.9485 23.067C69.4734 23.5546 69.2359 24.1735 69.2359 24.9237C69.2359 25.6739 69.4734 26.2928 69.9485 26.7804ZM85.6225 20.2351H87.9856V29.1622C87.9856 30.6125 87.5042 31.719 86.5415 32.4817C85.5913 33.2444 84.441 33.6257 83.0907 33.6257C82.0779 33.6257 81.184 33.432 80.4088 33.0444C79.6461 32.6568 79.0585 32.0879 78.6459 31.3377L80.7089 30.1562C81.184 31.0314 82.0029 31.469 83.1657 31.469C83.9284 31.469 84.5285 31.2689 84.9661 30.8688C85.4037 30.4688 85.6225 29.8999 85.6225 29.1622V28.1495C84.9099 29.0997 83.9096 29.5748 82.6218 29.5748C81.2965 29.5748 80.1837 29.1122 79.2835 28.187C78.3958 27.2492 77.952 26.1115 77.952 24.7737C77.952 23.4484 78.4021 22.3168 79.3023 21.3791C80.2025 20.4414 81.309 19.9725 82.6218 19.9725C83.9096 19.9725 84.9099 20.4477 85.6225 21.3979V20.2351ZM81.1027 26.6304C81.6028 27.1055 82.2342 27.343 82.9969 27.343C83.7596 27.343 84.3847 27.1055 84.8723 26.6304C85.3725 26.1427 85.6225 25.5238 85.6225 24.7737C85.6225 24.036 85.3725 23.4296 84.8723 22.9545C84.3847 22.4669 83.7596 22.2231 82.9969 22.2231C82.2342 22.2231 81.6028 22.4669 81.1027 22.9545C80.6151 23.4296 80.3713 24.036 80.3713 24.7737C80.3713 25.5238 80.6151 26.1427 81.1027 26.6304ZM92.5987 21.848C92.8238 21.2478 93.1926 20.7977 93.7052 20.4977C94.2304 20.1976 94.8117 20.0476 95.4494 20.0476V22.7482C94.7117 22.6607 94.0491 22.8107 93.4614 23.1983C92.8863 23.5859 92.5987 24.2298 92.5987 25.13V29.6123H90.1794V20.2351H92.5987V21.848ZM103.643 20.2351H106.062V29.6123H103.643V28.5058C102.918 29.4185 101.899 29.8749 100.586 29.8749C99.3358 29.8749 98.2605 29.3998 97.3603 28.4495C96.4726 27.4868 96.0287 26.3115 96.0287 24.9237C96.0287 23.5359 96.4726 22.3669 97.3603 21.4166C98.2605 20.4539 99.3358 19.9725 100.586 19.9725C101.899 19.9725 102.918 20.4289 103.643 21.3416V20.2351ZM99.1795 26.8367C99.6671 27.3243 100.286 27.5681 101.036 27.5681C101.786 27.5681 102.405 27.3243 102.893 26.8367C103.393 26.3365 103.643 25.6989 103.643 24.9237C103.643 24.1485 103.393 23.5171 102.893 23.0295C102.405 22.5294 101.786 22.2793 101.036 22.2793C100.286 22.2793 99.6671 22.5294 99.1795 23.0295C98.6918 23.5171 98.448 24.1485 98.448 24.9237C98.448 25.6989 98.6918 26.3365 99.1795 26.8367ZM118.627 19.9725C119.703 19.9725 120.559 20.3226 121.197 21.0228C121.847 21.723 122.172 22.6607 122.172 23.8359V29.6123H119.753V24.0047C119.753 23.4421 119.615 23.0045 119.34 22.6919C119.065 22.3794 118.677 22.2231 118.177 22.2231C117.627 22.2231 117.196 22.4044 116.883 22.7669C116.583 23.1295 116.433 23.6547 116.433 24.3423V29.6123H114.014V24.0047C114.014 23.4421 113.876 23.0045 113.601 22.6919C113.326 22.3794 112.939 22.2231 112.438 22.2231C111.901 22.2231 111.469 22.4044 111.144 22.7669C110.832 23.1295 110.675 23.6547 110.675 24.3423V29.6123H108.256V20.2351H110.675V21.2291C111.238 20.3914 112.107 19.9725 113.282 19.9725C114.433 19.9725 115.283 20.4226 115.833 21.3229C116.458 20.4226 117.39 19.9725 118.627 19.9725ZM134.598 19.9725C135.673 19.9725 136.53 20.3226 137.167 21.0228C137.817 21.723 138.142 22.6607 138.142 23.8359V29.6123H135.723V24.0047C135.723 23.4421 135.586 23.0045 135.311 22.6919C135.035 22.3794 134.648 22.2231 134.148 22.2231C133.598 22.2231 133.166 22.4044 132.854 22.7669C132.554 23.1295 132.404 23.6547 132.404 24.3423V29.6123H129.984V24.0047C129.984 23.4421 129.847 23.0045 129.572 22.6919C129.297 22.3794 128.909 22.2231 128.409 22.2231C127.871 22.2231 127.44 22.4044 127.115 22.7669C126.802 23.1295 126.646 23.6547 126.646 24.3423V29.6123H124.227V20.2351H126.646V21.2291C127.209 20.3914 128.078 19.9725 129.253 19.9725C130.403 19.9725 131.253 20.4226 131.803 21.3229C132.429 20.4226 133.36 19.9725 134.598 19.9725ZM141.398 19.1098C140.997 19.1098 140.647 18.9661 140.347 18.6785C140.06 18.3784 139.916 18.0283 139.916 17.6282C139.916 17.2281 140.06 16.8781 140.347 16.578C140.647 16.2779 140.997 16.1279 141.398 16.1279C141.81 16.1279 142.16 16.2779 142.448 16.578C142.748 16.8781 142.898 17.2281 142.898 17.6282C142.898 18.0283 142.748 18.3784 142.448 18.6785C142.16 18.9661 141.81 19.1098 141.398 19.1098ZM140.197 29.6123V20.2351H142.617V29.6123H140.197ZM150.045 19.9725C151.07 19.9725 151.914 20.3164 152.576 21.004C153.252 21.6917 153.589 22.6419 153.589 23.8547V29.6123H151.17V24.1548C151.17 23.5296 151.001 23.0545 150.664 22.7294C150.326 22.3919 149.876 22.2231 149.313 22.2231C148.688 22.2231 148.188 22.4169 147.813 22.8045C147.438 23.192 147.25 23.7734 147.25 24.5486V29.6123H144.831V20.2351H147.25V21.2853C147.838 20.4101 148.769 19.9725 150.045 19.9725ZM162.838 20.2351H165.201V29.1622C165.201 30.6125 164.72 31.719 163.757 32.4817C162.807 33.2444 161.656 33.6257 160.306 33.6257C159.293 33.6257 158.399 33.432 157.624 33.0444C156.862 32.6568 156.274 32.0879 155.861 31.3377L157.924 30.1562C158.399 31.0314 159.218 31.469 160.381 31.469C161.144 31.469 161.744 31.2689 162.182 30.8688C162.619 30.4688 162.838 29.8999 162.838 29.1622V28.1495C162.125 29.0997 161.125 29.5748 159.837 29.5748C158.512 29.5748 157.399 29.1122 156.499 28.187C155.611 27.2492 155.167 26.1115 155.167 24.7737C155.167 23.4484 155.617 22.3168 156.518 21.3791C157.418 20.4414 158.524 19.9725 159.837 19.9725C161.125 19.9725 162.125 20.4477 162.838 21.3979V20.2351ZM158.318 26.6304C158.818 27.1055 159.45 27.343 160.212 27.343C160.975 27.343 161.6 27.1055 162.088 26.6304C162.588 26.1427 162.838 25.5238 162.838 24.7737C162.838 24.036 162.588 23.4296 162.088 22.9545C161.6 22.4669 160.975 22.2231 160.212 22.2231C159.45 22.2231 158.818 22.4669 158.318 22.9545C157.83 23.4296 157.587 24.036 157.587 24.7737C157.587 25.5238 157.83 26.1427 158.318 26.6304ZM177.091 16.4842C178.354 16.4842 179.416 16.9093 180.279 17.7595C181.142 18.6097 181.573 19.6537 181.573 20.8915C181.573 22.1293 181.142 23.1733 180.279 24.0235C179.416 24.8737 178.354 25.2988 177.091 25.2988H174.784V29.6123H172.196V16.4842H177.091ZM177.091 22.8795C177.641 22.8795 178.097 22.6919 178.46 22.3168C178.822 21.9292 179.004 21.4541 179.004 20.8915C179.004 20.3164 178.822 19.8413 178.46 19.4662C178.097 19.0911 177.641 18.9035 177.091 18.9035H174.784V22.8795H177.091ZM189.65 20.2351H192.069V29.6123H189.65V28.5058C188.924 29.4185 187.905 29.8749 186.593 29.8749C185.342 29.8749 184.267 29.3998 183.367 28.4495C182.479 27.4868 182.035 26.3115 182.035 24.9237C182.035 23.5359 182.479 22.3669 183.367 21.4166C184.267 20.4539 185.342 19.9725 186.593 19.9725C187.905 19.9725 188.924 20.4289 189.65 21.3416V20.2351ZM185.186 26.8367C185.674 27.3243 186.293 27.5681 187.043 27.5681C187.793 27.5681 188.412 27.3243 188.899 26.8367C189.399 26.3365 189.65 25.6989 189.65 24.9237C189.65 24.1485 189.399 23.5171 188.899 23.0295C188.412 22.5294 187.793 22.2793 187.043 22.2793C186.293 22.2793 185.674 22.5294 185.186 23.0295C184.698 23.5171 184.455 24.1485 184.455 24.9237C184.455 25.6989 184.698 26.3365 185.186 26.8367ZM199.626 22.5606H197.507V26.4616C197.507 26.7866 197.588 27.0242 197.751 27.1742C197.914 27.3243 198.151 27.4118 198.464 27.4368C198.776 27.4493 199.164 27.443 199.626 27.418V29.6123C197.964 29.7998 196.788 29.6436 196.101 29.1434C195.425 28.6433 195.088 27.7494 195.088 26.4616V22.5606H193.456V20.2351H195.088V18.3409L197.507 17.6095V20.2351H199.626V22.5606ZM206.546 19.9725C207.571 19.9725 208.415 20.3164 209.078 21.004C209.753 21.6917 210.091 22.6419 210.091 23.8547V29.6123H207.671V24.1548C207.671 23.5296 207.502 23.0545 207.165 22.7294C206.827 22.3919 206.377 22.2231 205.815 22.2231C205.189 22.2231 204.689 22.4169 204.314 22.8045C203.939 23.192 203.752 23.7734 203.752 24.5486V29.6123H201.332V16.4842H203.752V21.2853C204.339 20.4101 205.271 19.9725 206.546 19.9725ZM214.388 22.8982C214.388 23.1483 214.551 23.3546 214.876 23.5171C215.213 23.6672 215.62 23.8047 216.095 23.9297C216.57 24.0422 217.045 24.1923 217.52 24.3798C217.995 24.5549 218.395 24.8549 218.72 25.28C219.058 25.7051 219.227 26.2365 219.227 26.8742C219.227 27.8369 218.864 28.5808 218.139 29.1059C217.426 29.6186 216.532 29.8749 215.457 29.8749C213.532 29.8749 212.219 29.1309 211.519 27.6431L213.619 26.4616C213.894 27.2743 214.507 27.6806 215.457 27.6806C216.32 27.6806 216.751 27.4118 216.751 26.8742C216.751 26.6241 216.582 26.4241 216.245 26.274C215.92 26.1115 215.52 25.9677 215.044 25.8427C214.569 25.7176 214.094 25.5614 213.619 25.3738C213.144 25.1863 212.738 24.8924 212.4 24.4924C212.075 24.0798 211.912 23.5671 211.912 22.9545C211.912 22.0293 212.25 21.3041 212.925 20.779C213.613 20.2414 214.463 19.9725 215.476 19.9725C216.239 19.9725 216.932 20.1476 217.558 20.4977C218.183 20.8352 218.677 21.3229 219.039 21.9605L216.976 23.0858C216.676 22.4481 216.176 22.1293 215.476 22.1293C215.163 22.1293 214.901 22.1981 214.688 22.3356C214.488 22.4731 214.388 22.6607 214.388 22.8982ZM225.996 19.9725C227.022 19.9725 227.866 20.3164 228.528 21.004C229.203 21.6917 229.541 22.6419 229.541 23.8547V29.6123H227.122V24.1548C227.122 23.5296 226.953 23.0545 226.615 22.7294C226.278 22.3919 225.828 22.2231 225.265 22.2231C224.64 22.2231 224.14 22.4169 223.765 22.8045C223.389 23.192 223.202 23.7734 223.202 24.5486V29.6123H220.783V16.4842H223.202V21.2853C223.79 20.4101 224.721 19.9725 225.996 19.9725ZM238.733 20.2351H241.153V29.6123H238.733V28.5058C238.008 29.4185 236.989 29.8749 235.676 29.8749C234.426 29.8749 233.351 29.3998 232.451 28.4495C231.563 27.4868 231.119 26.3115 231.119 24.9237C231.119 23.5359 231.563 22.3669 232.451 21.4166C233.351 20.4539 234.426 19.9725 235.676 19.9725C236.989 19.9725 238.008 20.4289 238.733 21.3416V20.2351ZM234.27 26.8367C234.757 27.3243 235.376 27.5681 236.126 27.5681C236.877 27.5681 237.496 27.3243 237.983 26.8367C238.483 26.3365 238.733 25.6989 238.733 24.9237C238.733 24.1485 238.483 23.5171 237.983 23.0295C237.496 22.5294 236.877 22.2793 236.126 22.2793C235.376 22.2793 234.757 22.5294 234.27 23.0295C233.782 23.5171 233.538 24.1485 233.538 24.9237C233.538 25.6989 233.782 26.3365 234.27 26.8367ZM243.346 29.6123V15.9216H245.766V29.6123H243.346ZM255.107 20.2351H257.526V29.6123H255.107V28.5058C254.382 29.4185 253.363 29.8749 252.05 29.8749C250.8 29.8749 249.724 29.3998 248.824 28.4495C247.936 27.4868 247.493 26.3115 247.493 24.9237C247.493 23.5359 247.936 22.3669 248.824 21.4166C249.724 20.4539 250.8 19.9725 252.05 19.9725C253.363 19.9725 254.382 20.4289 255.107 21.3416V20.2351ZM250.643 26.8367C251.131 27.3243 251.75 27.5681 252.5 27.5681C253.25 27.5681 253.869 27.3243 254.357 26.8367C254.857 26.3365 255.107 25.6989 255.107 24.9237C255.107 24.1485 254.857 23.5171 254.357 23.0295C253.869 22.5294 253.25 22.2793 252.5 22.2793C251.75 22.2793 251.131 22.5294 250.643 23.0295C250.156 23.5171 249.912 24.1485 249.912 24.9237C249.912 25.6989 250.156 26.3365 250.643 26.8367Z" fill="#3940A0"/>
</svg>
